<svg width="75" height="19" viewBox="0 0 75 19" fill="none" xmlns="http://www.w3.org/2000/svg">
<path d="M-73.3971 14.3813C-74.4408 14.3813 -75.3471 14.2188 -76.1158 13.8937C-76.8783 13.5625 -77.4752 13.0906 -77.9064 12.4781C-78.3377 11.8656 -78.5783 11.1375 -78.6283 10.2937H-76.5096C-76.4658 10.8 -76.3033 11.2219 -76.0221 11.5594C-75.7346 11.8906 -75.3627 12.1375 -74.9064 12.3C-74.4502 12.4625 -73.9502 12.5437 -73.4064 12.5437C-72.8127 12.5437 -72.2814 12.45 -71.8127 12.2625C-71.3439 12.075 -70.9783 11.8125 -70.7158 11.475C-70.4471 11.1312 -70.3127 10.7312 -70.3127 10.275C-70.3127 9.8625 -70.4314 9.525 -70.6689 9.2625C-70.9002 9 -71.2158 8.78437 -71.6158 8.61562C-72.0158 8.44062 -72.4658 8.2875 -72.9658 8.15625L-74.6064 7.70625C-75.7314 7.40625 -76.6189 6.95937 -77.2689 6.36562C-77.9189 5.76562 -78.2439 4.98125 -78.2439 4.0125C-78.2439 3.20625 -78.0283 2.50312 -77.5971 1.90312C-77.1596 1.30312 -76.5689 0.837499 -75.8252 0.506249C-75.0752 0.168749 -74.2346 -5.62519e-07 -73.3033 -5.62519e-07C-72.3533 -5.62519e-07 -71.5189 0.168749 -70.8002 0.506249C-70.0752 0.837499 -69.5033 1.29375 -69.0846 1.875C-68.6596 2.45 -68.4377 3.10937 -68.4189 3.85312H-70.4627C-70.5377 3.20937 -70.8377 2.70937 -71.3627 2.35312C-71.8814 1.99687 -72.5439 1.81875 -73.3502 1.81875C-73.9127 1.81875 -74.4064 1.90937 -74.8314 2.09062C-75.2502 2.26562 -75.5752 2.50937 -75.8064 2.82187C-76.0314 3.13437 -76.1439 3.49375 -76.1439 3.9C-76.1439 4.3375 -76.0096 4.69375 -75.7408 4.96875C-75.4658 5.24375 -75.1346 5.4625 -74.7471 5.625C-74.3533 5.78125 -73.9752 5.90937 -73.6127 6.00937L-72.2533 6.375C-71.8096 6.4875 -71.3533 6.6375 -70.8846 6.825C-70.4158 7.0125 -69.9814 7.25937 -69.5814 7.56562C-69.1752 7.86562 -68.8502 8.24062 -68.6064 8.69062C-68.3564 9.13437 -68.2314 9.67187 -68.2314 10.3031C-68.2314 11.0844 -68.4346 11.7844 -68.8408 12.4031C-69.2471 13.0156 -69.8346 13.5 -70.6033 13.8562C-71.3721 14.2063 -72.3033 14.3813 -73.3971 14.3813ZM-64.8002 10.6031L-64.8283 8.11875H-64.4627L-60.2908 3.675H-57.8533L-62.6064 8.7375H-62.9439L-64.8002 10.6031ZM-66.6752 14.1562V0.187499H-64.6502V14.1562H-66.6752ZM-60.0752 14.1562L-63.8252 9.1875L-62.4189 7.75312L-57.5627 14.1562H-60.0752ZM-55.4627 18.075C-55.7689 18.0813 -56.0471 18.0594 -56.2971 18.0094C-56.5408 17.9656 -56.7283 17.9125 -56.8596 17.85L-56.3627 16.1906L-56.2221 16.2281C-55.7033 16.3594 -55.2658 16.35 -54.9096 16.2C-54.5471 16.0563 -54.2439 15.6531 -54.0002 14.9906L-53.7471 14.2969L-57.5721 3.675H-55.3877L-52.7439 11.8125H-52.6314L-49.9783 3.675H-47.7939L-52.1064 15.5438C-52.3064 16.0938 -52.5596 16.5563 -52.8658 16.9313C-53.1721 17.3125 -53.5408 17.5969 -53.9721 17.7844C-54.3971 17.9781 -54.8939 18.075 -55.4627 18.075ZM-36.4127 14.3438C-37.6127 14.3438 -38.6877 14.0562 -39.6377 13.4812C-40.5877 12.9062 -41.3346 12.0844 -41.8783 11.0156C-42.4221 9.94062 -42.6939 8.6625 -42.6939 7.18125C-42.6939 5.6875 -42.4221 4.40625 -41.8783 3.3375C-41.3283 2.2625 -40.5814 1.4375 -39.6377 0.862499C-38.6877 0.287499 -37.6127 -5.62519e-07 -36.4127 -5.62519e-07C-35.6752 -5.62519e-07 -34.9846 0.106249 -34.3408 0.318749C-33.6908 0.531249 -33.1096 0.840624 -32.5971 1.24687C-32.0846 1.65312 -31.6627 2.15 -31.3314 2.7375C-30.9939 3.325 -30.7689 3.99062 -30.6564 4.73437H-32.7752C-32.8564 4.27812 -33.0096 3.87812 -33.2346 3.53437C-33.4533 3.18437 -33.7252 2.89062 -34.0502 2.65312C-34.3689 2.40937 -34.7283 2.22812 -35.1283 2.10937C-35.5221 1.98437 -35.9408 1.92187 -36.3846 1.92187C-37.1846 1.92187 -37.9064 2.125 -38.5502 2.53125C-39.1877 2.93125 -39.6908 3.525 -40.0596 4.3125C-40.4221 5.09375 -40.6033 6.05 -40.6033 7.18125C-40.6033 8.31875 -40.4189 9.27812 -40.0502 10.0594C-39.6814 10.8344 -39.1783 11.4219 -38.5408 11.8219C-37.9033 12.2219 -37.1877 12.4219 -36.3939 12.4219C-35.9502 12.4219 -35.5314 12.3625 -35.1377 12.2437C-34.7439 12.125 -34.3846 11.9469 -34.0596 11.7094C-33.7346 11.4719 -33.4627 11.1844 -33.2439 10.8469C-33.0189 10.5031 -32.8627 10.1062 -32.7752 9.65625H-30.6564C-30.7627 10.35 -30.9783 10.9844 -31.3033 11.5594C-31.6283 12.1281 -32.0439 12.6219 -32.5502 13.0406C-33.0564 13.4531 -33.6346 13.775 -34.2846 14.0062C-34.9346 14.2313 -35.6439 14.3438 -36.4127 14.3438ZM-26.0439 14.3813C-26.7064 14.3813 -27.3064 14.2594 -27.8439 14.0156C-28.3814 13.7656 -28.8064 13.4031 -29.1189 12.9281C-29.4314 12.4531 -29.5877 11.875 -29.5877 11.1937C-29.5877 10.6 -29.4752 10.1156 -29.2502 9.74062C-29.0189 9.35937 -28.7096 9.05625 -28.3221 8.83125C-27.9346 8.60625 -27.5033 8.4375 -27.0283 8.325C-26.5533 8.2125 -26.0658 8.125 -25.5658 8.0625C-24.9346 7.99375 -24.4252 7.93437 -24.0377 7.88437C-23.6502 7.83437 -23.3689 7.75625 -23.1939 7.65C-23.0127 7.5375 -22.9221 7.35937 -22.9221 7.11562V7.06875C-22.9221 6.475 -23.0908 6.01562 -23.4283 5.69062C-23.7596 5.36562 -24.2533 5.20312 -24.9096 5.20312C-25.5908 5.20312 -26.1314 5.35312 -26.5314 5.65312C-26.9252 5.94687 -27.1971 6.28125 -27.3471 6.65625L-29.2689 6.21562C-29.0377 5.57812 -28.7033 5.06562 -28.2658 4.67812C-27.8221 4.28437 -27.3158 3.99687 -26.7471 3.81562C-26.1721 3.63437 -25.5721 3.54375 -24.9471 3.54375C-24.5283 3.54375 -24.0846 3.59375 -23.6158 3.69375C-23.1471 3.7875 -22.7064 3.96562 -22.2939 4.22812C-21.8752 4.48437 -21.5346 4.85312 -21.2721 5.33437C-21.0096 5.81562 -20.8783 6.4375 -20.8783 7.2V14.1562H-22.8752V12.7219H-22.9502C-23.0752 12.9781 -23.2721 13.2344 -23.5408 13.4906C-23.8033 13.7469 -24.1408 13.9594 -24.5533 14.1281C-24.9658 14.2969 -25.4627 14.3813 -26.0439 14.3813ZM-25.6033 12.75C-25.0346 12.75 -24.5502 12.6406 -24.1502 12.4219C-23.7502 12.1969 -23.4439 11.9031 -23.2314 11.5406C-23.0189 11.1781 -22.9127 10.7937 -22.9127 10.3875V9.02812C-22.9877 9.09687 -23.1283 9.1625 -23.3346 9.225C-23.5408 9.2875 -23.7752 9.34062 -24.0377 9.38437C-24.3002 9.42812 -24.5564 9.46875 -24.8064 9.50625C-25.0564 9.5375 -25.2658 9.5625 -25.4346 9.58125C-25.8283 9.6375 -26.1877 9.725 -26.5127 9.84375C-26.8377 9.95625 -27.1002 10.125 -27.3002 10.35C-27.4939 10.5687 -27.5908 10.8594 -27.5908 11.2219C-27.5908 11.7281 -27.4033 12.1094 -27.0283 12.3656C-26.6533 12.6219 -26.1783 12.75 -25.6033 12.75ZM-10.3502 3.675L-14.1377 14.1562H-16.3314L-20.1283 3.675H-17.9439L-15.2814 11.7562H-15.1689L-12.5252 3.675H-10.3502ZM-5.09082 14.3719C-6.11582 14.3719 -7.00332 14.15 -7.75332 13.7062C-8.50332 13.2625 -9.08145 12.6375 -9.4877 11.8312C-9.8877 11.0187 -10.0877 10.0719 -10.0877 8.99062C-10.0877 7.91562 -9.89082 6.96875 -9.49707 6.15C-9.09707 5.33125 -8.5377 4.69375 -7.81895 4.2375C-7.09395 3.775 -6.24395 3.54375 -5.26895 3.54375C-4.6752 3.54375 -4.1002 3.64062 -3.54395 3.83437C-2.9877 4.02812 -2.48769 4.33437 -2.04394 4.75312C-1.60019 5.17187 -1.25019 5.71562 -0.993945 6.38437C-0.731445 7.05312 -0.600195 7.85937 -0.600195 8.80312V9.53437H-8.93457V8.00625H-1.65019L-2.59707 8.5125C-2.59707 7.86875 -2.69707 7.3 -2.89707 6.80625C-3.09707 6.3125 -3.39707 5.92812 -3.79707 5.65312C-4.19082 5.37187 -4.68145 5.23125 -5.26895 5.23125C-5.85645 5.23125 -6.35957 5.37187 -6.77832 5.65312C-7.19082 5.93437 -7.50645 6.30625 -7.7252 6.76875C-7.94395 7.23125 -8.05332 7.7375 -8.05332 8.2875V9.32812C-8.05332 10.0469 -7.92832 10.6562 -7.67832 11.1562C-7.42832 11.6562 -7.08145 12.0375 -6.6377 12.3C-6.1877 12.5625 -5.66582 12.6937 -5.07207 12.6937C-4.68457 12.6937 -4.33457 12.6375 -4.02207 12.525C-3.70332 12.4125 -3.42832 12.2437 -3.19707 12.0187C-2.96582 11.7937 -2.79082 11.5156 -2.67207 11.1844L-0.74082 11.55C-0.89707 12.1125 -1.17207 12.6062 -1.56582 13.0312C-1.95957 13.4562 -2.45644 13.7875 -3.05645 14.025C-3.6502 14.2563 -4.32832 14.3719 -5.09082 14.3719ZM5.24981 14.1562V0.187499H10.2373C11.3186 0.187499 12.2154 0.374999 12.9279 0.749999C13.6404 1.11875 14.1748 1.63437 14.5311 2.29687C14.8873 2.95312 15.0654 3.7125 15.0654 4.575C15.0654 5.425 14.8873 6.175 14.5311 6.825C14.1748 7.475 13.6373 7.97812 12.9186 8.33437C12.2061 8.69062 11.3061 8.86875 10.2186 8.86875H6.45918V7.06875H10.0217C10.7154 7.06875 11.2748 6.96875 11.6998 6.76875C12.1311 6.56875 12.4436 6.28437 12.6373 5.91562C12.8373 5.54687 12.9373 5.1 12.9373 4.575C12.9373 4.04375 12.8373 3.5875 12.6373 3.20625C12.4373 2.81875 12.1217 2.52187 11.6904 2.31562C11.2654 2.10312 10.7061 1.99687 10.0123 1.99687H7.35918V14.1562H5.24981ZM13.1998 14.1562L9.81543 7.84687H12.1498L15.5998 14.1562H13.1998ZM21.0654 14.3719C20.0404 14.3719 19.1529 14.15 18.4029 13.7062C17.6529 13.2625 17.0748 12.6375 16.6686 11.8312C16.2686 11.0187 16.0686 10.0719 16.0686 8.99062C16.0686 7.91562 16.2654 6.96875 16.6592 6.15C17.0592 5.33125 17.6186 4.69375 18.3373 4.2375C19.0623 3.775 19.9123 3.54375 20.8873 3.54375C21.4811 3.54375 22.0561 3.64062 22.6123 3.83437C23.1686 4.02812 23.6686 4.33437 24.1123 4.75312C24.5561 5.17187 24.9061 5.71562 25.1623 6.38437C25.4248 7.05312 25.5561 7.85937 25.5561 8.80312V9.53437H17.2217V8.00625H24.5061L23.5592 8.5125C23.5592 7.86875 23.4592 7.3 23.2592 6.80625C23.0592 6.3125 22.7592 5.92812 22.3592 5.65312C21.9654 5.37187 21.4748 5.23125 20.8873 5.23125C20.2998 5.23125 19.7967 5.37187 19.3779 5.65312C18.9654 5.93437 18.6498 6.30625 18.4311 6.76875C18.2123 7.23125 18.1029 7.7375 18.1029 8.2875V9.32812C18.1029 10.0469 18.2279 10.6562 18.4779 11.1562C18.7279 11.6562 19.0748 12.0375 19.5186 12.3C19.9686 12.5625 20.4904 12.6937 21.0842 12.6937C21.4717 12.6937 21.8217 12.6375 22.1342 12.525C22.4529 12.4125 22.7279 12.2437 22.9592 12.0187C23.1904 11.7937 23.3654 11.5156 23.4842 11.1844L25.4154 11.55C25.2592 12.1125 24.9842 12.6062 24.5904 13.0312C24.1967 13.4562 23.6998 13.7875 23.0998 14.025C22.5061 14.2563 21.8279 14.3719 21.0654 14.3719ZM31.8561 3.675V5.31562H26.1373V3.675H31.8561ZM27.6654 1.18125H29.6998V11.0812C29.6998 11.5625 29.7998 11.9156 29.9998 12.1406C30.1998 12.3594 30.5217 12.4687 30.9654 12.4687C31.0717 12.4687 31.1842 12.4625 31.3029 12.45C31.4279 12.4375 31.5529 12.4187 31.6779 12.3937L32.0623 14.0812C31.8561 14.15 31.6311 14.2031 31.3873 14.2406C31.1436 14.2781 30.8998 14.2969 30.6561 14.2969C29.7498 14.2969 29.0248 14.0437 28.4811 13.5375C27.9373 13.025 27.6654 12.3437 27.6654 11.4937V1.18125ZM33.3186 14.1562V3.675H35.2779V5.35312H35.3904C35.5842 4.79062 35.9217 4.34687 36.4029 4.02187C36.8904 3.69062 37.4404 3.525 38.0529 3.525C38.1779 3.525 38.3248 3.53125 38.4936 3.54375C38.6686 3.55 38.8092 3.55937 38.9154 3.57187V5.52187C38.8342 5.49687 38.6873 5.47187 38.4748 5.44687C38.2686 5.42187 38.0592 5.40937 37.8467 5.40937C37.3654 5.40937 36.9342 5.5125 36.5529 5.71875C36.1779 5.91875 35.8811 6.19687 35.6623 6.55312C35.4498 6.90312 35.3436 7.30937 35.3436 7.77187V14.1562H33.3186ZM44.0342 14.3719C43.0092 14.3719 42.1217 14.15 41.3717 13.7062C40.6217 13.2625 40.0436 12.6375 39.6373 11.8312C39.2373 11.0187 39.0373 10.0719 39.0373 8.99062C39.0373 7.91562 39.2342 6.96875 39.6279 6.15C40.0279 5.33125 40.5873 4.69375 41.3061 4.2375C42.0311 3.775 42.8811 3.54375 43.8561 3.54375C44.4498 3.54375 45.0248 3.64062 45.5811 3.83437C46.1373 4.02812 46.6373 4.33437 47.0811 4.75312C47.5248 5.17187 47.8748 5.71562 48.1311 6.38437C48.3936 7.05312 48.5248 7.85937 48.5248 8.80312V9.53437H40.1904V8.00625H47.4748L46.5279 8.5125C46.5279 7.86875 46.4279 7.3 46.2279 6.80625C46.0279 6.3125 45.7279 5.92812 45.3279 5.65312C44.9342 5.37187 44.4436 5.23125 43.8561 5.23125C43.2686 5.23125 42.7654 5.37187 42.3467 5.65312C41.9342 5.93437 41.6186 6.30625 41.3998 6.76875C41.1811 7.23125 41.0717 7.7375 41.0717 8.2875V9.32812C41.0717 10.0469 41.1967 10.6562 41.4467 11.1562C41.6967 11.6562 42.0436 12.0375 42.4873 12.3C42.9373 12.5625 43.4592 12.6937 44.0529 12.6937C44.4404 12.6937 44.7904 12.6375 45.1029 12.525C45.4217 12.4125 45.6967 12.2437 45.9279 12.0187C46.1592 11.7937 46.3342 11.5156 46.4529 11.1844L48.3842 11.55C48.2279 12.1125 47.9529 12.6062 47.5592 13.0312C47.1654 13.4562 46.6686 13.7875 46.0686 14.025C45.4748 14.2563 44.7967 14.3719 44.0342 14.3719ZM52.9873 14.3813C52.3248 14.3813 51.7248 14.2594 51.1873 14.0156C50.6498 13.7656 50.2248 13.4031 49.9123 12.9281C49.5998 12.4531 49.4436 11.875 49.4436 11.1937C49.4436 10.6 49.5561 10.1156 49.7811 9.74062C50.0123 9.35937 50.3217 9.05625 50.7092 8.83125C51.0967 8.60625 51.5279 8.4375 52.0029 8.325C52.4779 8.2125 52.9654 8.125 53.4654 8.0625C54.0967 7.99375 54.6061 7.93437 54.9936 7.88437C55.3811 7.83437 55.6623 7.75625 55.8373 7.65C56.0186 7.5375 56.1092 7.35937 56.1092 7.11562V7.06875C56.1092 6.475 55.9404 6.01562 55.6029 5.69062C55.2717 5.36562 54.7779 5.20312 54.1217 5.20312C53.4404 5.20312 52.8998 5.35312 52.4998 5.65312C52.1061 5.94687 51.8342 6.28125 51.6842 6.65625L49.7623 6.21562C49.9936 5.57812 50.3279 5.06562 50.7654 4.67812C51.2092 4.28437 51.7154 3.99687 52.2842 3.81562C52.8592 3.63437 53.4592 3.54375 54.0842 3.54375C54.5029 3.54375 54.9467 3.59375 55.4154 3.69375C55.8842 3.7875 56.3248 3.96562 56.7373 4.22812C57.1561 4.48437 57.4967 4.85312 57.7592 5.33437C58.0217 5.81562 58.1529 6.4375 58.1529 7.2V14.1562H56.1561V12.7219H56.0811C55.9561 12.9781 55.7592 13.2344 55.4904 13.4906C55.2279 13.7469 54.8904 13.9594 54.4779 14.1281C54.0654 14.2969 53.5686 14.3813 52.9873 14.3813ZM53.4279 12.75C53.9967 12.75 54.4811 12.6406 54.8811 12.4219C55.2811 12.1969 55.5873 11.9031 55.7998 11.5406C56.0123 11.1781 56.1186 10.7937 56.1186 10.3875V9.02812C56.0436 9.09687 55.9029 9.1625 55.6967 9.225C55.4904 9.2875 55.2561 9.34062 54.9936 9.38437C54.7311 9.42812 54.4748 9.46875 54.2248 9.50625C53.9748 9.5375 53.7654 9.5625 53.5967 9.58125C53.2029 9.6375 52.8436 9.725 52.5186 9.84375C52.1936 9.95625 51.9311 10.125 51.7311 10.35C51.5373 10.5687 51.4404 10.8594 51.4404 11.2219C51.4404 11.7281 51.6279 12.1094 52.0029 12.3656C52.3779 12.6219 52.8529 12.75 53.4279 12.75ZM64.9873 3.675V5.31562H59.2686V3.675H64.9873ZM60.7967 1.18125H62.8311V11.0812C62.8311 11.5625 62.9311 11.9156 63.1311 12.1406C63.3311 12.3594 63.6529 12.4687 64.0967 12.4687C64.2029 12.4687 64.3154 12.4625 64.4342 12.45C64.5592 12.4375 64.6842 12.4187 64.8092 12.3937L65.1936 14.0812C64.9873 14.15 64.7623 14.2031 64.5186 14.2406C64.2748 14.2781 64.0311 14.2969 63.7873 14.2969C62.8811 14.2969 62.1561 14.0437 61.6123 13.5375C61.0686 13.025 60.7967 12.3437 60.7967 11.4937V1.18125ZM74.1186 6.24375L72.2717 6.5625C72.1529 6.2125 71.9311 5.89062 71.6061 5.59687C71.2873 5.30312 70.8092 5.15625 70.1717 5.15625C69.5967 5.15625 69.1154 5.2875 68.7279 5.55C68.3467 5.80625 68.1561 6.13437 68.1561 6.53437C68.1561 6.88437 68.2842 7.16875 68.5404 7.3875C68.8029 7.60625 69.2186 7.78125 69.7873 7.9125L71.4654 8.2875C72.4217 8.50625 73.1373 8.85 73.6123 9.31875C74.0873 9.7875 74.3248 10.3875 74.3248 11.1187C74.3248 11.75 74.1436 12.3125 73.7811 12.8062C73.4186 13.2937 72.9154 13.6781 72.2717 13.9594C71.6279 14.2344 70.8842 14.3719 70.0404 14.3719C68.8654 14.3719 67.9092 14.1187 67.1717 13.6125C66.4342 13.1062 65.9811 12.3937 65.8123 11.475L67.7717 11.175C67.8967 11.6875 68.1498 12.075 68.5311 12.3375C68.9186 12.6 69.4186 12.7312 70.0311 12.7312C70.6936 12.7312 71.2248 12.5906 71.6248 12.3094C72.0311 12.0281 72.2342 11.6875 72.2342 11.2875C72.2342 10.625 71.7404 10.1781 70.7529 9.94687L68.9811 9.55312C67.9998 9.32812 67.2748 8.975 66.8061 8.49375C66.3436 8.00625 66.1123 7.39375 66.1123 6.65625C66.1123 6.0375 66.2842 5.49375 66.6279 5.025C66.9779 4.55625 67.4561 4.19375 68.0623 3.9375C68.6748 3.675 69.3717 3.54375 70.1529 3.54375C71.2904 3.54375 72.1811 3.79062 72.8248 4.28437C73.4748 4.77812 73.9061 5.43125 74.1186 6.24375Z" fill="black"/>
</svg>
